<?xml version="1.0" encoding="UTF-8" standalone="no"?>
<!DOCTYPE svg PUBLIC "-//W3C//DTD SVG 1.1//EN" "http://www.w3.org/Graphics/SVG/1.1/DTD/svg11.dtd">
<svg width="100%" height="100%" viewBox="0 0 1107 703" version="1.1" xmlns="http://www.w3.org/2000/svg" xmlns:xlink="http://www.w3.org/1999/xlink" xml:space="preserve" xmlns:serif="http://www.serif.com/" style="fill-rule:evenodd;clip-rule:evenodd;stroke-linejoin:round;stroke-miterlimit:2;">
    <g transform="matrix(1,0,0,1,-686.945666,-1402.570008)">
        <g transform="matrix(1,0,0,1,686.945656,1402.570008)">
            <path d="M162,702.734L944.422,702.734C1059.27,702.734 1119.03,628.906 1104.19,506.25L1062,154.297C1050.28,54.688 992.86,0 901.844,0L204.578,0C113.563,0 56.141,54.688 44.422,154.297L2.235,506.25C-12.609,628.906 47.156,702.734 162,702.734ZM288.172,465.234C272.938,465.234 260.828,458.203 260.828,448.047L260.828,335.547C218.25,323.047 186.61,283.984 186.61,237.5C186.61,182.031 231.922,136.328 288.172,136.328C343.641,136.328 389.344,181.641 389.344,237.5C389.344,283.594 357.703,323.047 315.516,334.375L315.516,448.047C315.516,458.203 303.016,465.234 288.172,465.234ZM288.172,550.781C206.141,550.781 148.328,507.031 148.328,444.922C148.328,401.172 176.453,366.797 221.766,350L221.766,402.734C206.531,412.891 197.547,427.344 197.547,444.922C197.547,481.641 234.656,507.422 288.172,507.422C341.297,507.422 378.016,481.641 378.016,444.922C378.016,427.734 369.422,413.281 354.578,403.125L354.578,350C399.11,367.188 427.235,401.172 427.235,444.922C427.235,507.031 369.813,550.781 288.172,550.781ZM523.328,326.172C490.906,326.172 464.735,300 464.735,267.578C464.735,234.766 490.906,208.594 523.328,208.594C556.141,208.594 582.313,234.766 582.313,267.578C582.313,300 556.141,326.172 523.328,326.172ZM693.641,326.172C661.219,326.172 635.047,300 635.047,267.578C635.047,234.766 661.219,208.594 693.641,208.594C726.063,208.594 752.625,234.766 752.625,267.578C752.625,300 726.063,326.172 693.641,326.172ZM863.563,326.172C831.141,326.172 804.578,300 804.578,267.578C804.578,234.766 831.141,208.594 863.563,208.594C895.594,208.594 922.156,234.766 922.156,267.578C922.156,300 895.594,326.172 863.563,326.172ZM580.36,495.703C547.547,495.703 521.375,469.531 521.375,437.109C521.375,404.688 547.547,378.125 580.36,378.125C612.391,378.125 638.563,404.688 638.563,437.109C638.563,469.531 612.391,495.703 580.36,495.703ZM750.281,495.703C717.86,495.703 691.688,469.531 691.688,437.109C691.688,404.688 717.86,378.125 750.281,378.125C782.703,378.125 809.266,404.688 809.266,437.109C809.266,469.531 782.703,495.703 750.281,495.703ZM920.203,495.703C887.781,495.703 861.61,469.531 861.61,437.109C861.61,404.688 887.781,378.125 920.203,378.125C953.016,378.125 979.188,404.688 979.188,437.109C979.188,469.531 953.016,495.703 920.203,495.703Z" style="fill-opacity:0.85;fill-rule:nonzero;"/>
        </g>
    </g>
</svg>
