<?xml version="1.0" encoding="UTF-8" standalone="no"?>
<!DOCTYPE svg PUBLIC "-//W3C//DTD SVG 1.1//EN" "http://www.w3.org/Graphics/SVG/1.1/DTD/svg11.dtd">
<svg width="100%" height="100%" viewBox="0 0 1127 636" version="1.1" xmlns="http://www.w3.org/2000/svg" xmlns:xlink="http://www.w3.org/1999/xlink" xml:space="preserve" xmlns:serif="http://www.serif.com/" style="fill-rule:evenodd;clip-rule:evenodd;stroke-linejoin:round;stroke-miterlimit:2;">
    <g transform="matrix(1,0,0,1,-54.086536,-2401.290868)">
        <g transform="matrix(1,0,0,1,54.086536,2400.509618)">
            <path d="M445.312,63.672L455.078,63.672C460.938,63.672 464.062,66.406 464.062,73.047L464.062,77.344C464.062,93.75 475,104.688 491.406,104.688L635.938,104.688C651.953,104.688 662.109,93.75 662.109,77.344L662.109,73.047C662.109,66.406 665.234,63.672 671.875,63.672L681.641,63.672L681.641,31.25L445.312,31.25L445.312,63.672ZM0,591.797C0,616.406 19.922,636.328 44.141,636.328L1082.42,636.328C1106.64,636.328 1126.56,616.406 1126.56,591.797C1126.56,567.188 1106.64,547.266 1082.42,547.266L996.875,547.266L996.875,83.594C996.875,28.906 967.578,0.781 913.281,0.781L213.281,0.781C161.719,0.781 129.688,28.906 129.688,83.594L129.688,547.266L44.141,547.266C19.922,547.266 0,567.188 0,591.797ZM192.578,547.266L192.578,101.172C192.578,76.172 205.078,63.672 230.078,63.672L896.484,63.672C921.484,63.672 933.984,76.172 933.984,101.172L933.984,547.266L192.578,547.266Z" style="fill-opacity:0.85;fill-rule:nonzero;"/>
        </g>
    </g>
</svg>
