<?xml version="1.0" encoding="UTF-8" standalone="no"?>
<!DOCTYPE svg PUBLIC "-//W3C//DTD SVG 1.1//EN" "http://www.w3.org/Graphics/SVG/1.1/DTD/svg11.dtd">
<svg width="100%" height="100%" viewBox="0 0 1128 708" version="1.1" xmlns="http://www.w3.org/2000/svg" xmlns:xlink="http://www.w3.org/1999/xlink" xml:space="preserve" xmlns:serif="http://www.serif.com/" style="fill-rule:evenodd;clip-rule:evenodd;stroke-linejoin:round;stroke-miterlimit:2;">
    <g transform="matrix(1,0,0,1,-305.501536,-2317.962743)">
        <g transform="matrix(1,0,0,1,305.501536,2317.572118)">
            <path d="M237.891,275.781C237.891,255.469 250.391,242.969 271.484,242.969L343.75,242.969L343.75,172.656C343.75,151.953 355.469,139.453 375.781,139.453C395.703,139.453 407.812,151.953 407.812,172.656L407.812,242.969L475.391,242.969C498.047,242.969 511.719,255.469 511.719,275.781C511.719,296.875 498.047,309.766 475.391,309.766L407.812,309.766L407.812,380.078C407.812,400.781 395.703,413.672 375.781,413.672C355.469,413.672 343.75,400.781 343.75,380.078L343.75,309.766L271.484,309.766C250.391,309.766 237.891,296.875 237.891,275.781ZM814.453,271.875C782.422,271.875 755.469,245.703 755.469,213.281C755.469,180.469 782.422,154.297 814.453,154.297C847.266,154.297 873.438,180.469 873.438,213.281C873.438,245.703 847.266,271.875 814.453,271.875ZM696.094,391.016C664.062,391.016 637.109,364.844 637.109,332.422C637.109,300 664.062,273.438 696.094,273.438C728.516,273.438 755.078,300 755.078,332.422C755.078,364.844 728.516,391.016 696.094,391.016ZM148.828,708.203C202.344,708.203 239.062,688.672 271.875,648.047L342.578,562.5C352.734,550.391 364.453,544.531 376.172,544.531L751.562,544.531C763.281,544.531 775,550.391 785.156,562.5L855.859,648.047C888.672,688.672 925.391,708.203 978.906,708.203C1068.36,708.203 1127.73,648.828 1127.73,557.422C1127.73,518.359 1118.75,473.438 1103.52,423.047C1079.69,342.969 1037.89,233.984 998.047,149.609C964.453,79.297 947.266,47.266 864.453,28.516C791.016,11.719 689.062,0.391 564.062,0.391C439.062,0.391 336.719,11.719 263.281,28.516C180.469,47.266 163.281,79.297 129.688,149.609C89.844,233.984 48.047,342.969 24.219,423.047C8.984,473.438 0,518.359 0,557.422C0,648.828 59.375,708.203 148.828,708.203Z" style="fill-opacity:0.85;fill-rule:nonzero;"/>
        </g>
    </g>
</svg>
