<?xml version="1.0" encoding="UTF-8" standalone="no"?>
<!DOCTYPE svg PUBLIC "-//W3C//DTD SVG 1.1//EN" "http://www.w3.org/Graphics/SVG/1.1/DTD/svg11.dtd">
<svg width="100%" height="100%" viewBox="0 0 909 931" version="1.1" xmlns="http://www.w3.org/2000/svg" xmlns:xlink="http://www.w3.org/1999/xlink" xml:space="preserve" xmlns:serif="http://www.serif.com/" style="fill-rule:evenodd;clip-rule:evenodd;stroke-linejoin:round;stroke-miterlimit:2;">
    <g transform="matrix(1,0,0,1,-45.442531,-2157.372181)">
        <g transform="matrix(1,0,0,1,715.689354,2326.680191)">
            <g transform="matrix(1,0,0,1,-670.246813,-171.374845)">
                <path d="M48.088,884.499C112.541,948.952 208.244,951.296 271.135,875.905C318.01,820.046 435.197,630.593 535.979,529.811C603.166,462.624 677.385,498.171 752.385,467.702L685.979,225.514C677.776,195.436 689.885,170.436 724.651,161.061L871.135,121.999C866.447,108.327 853.557,89.577 837.151,73.171C746.916,-19.407 598.088,-20.579 509.026,63.796C378.947,187.624 477.776,318.483 392.229,404.03C284.416,511.452 135.979,589.577 56.291,660.671C-17.537,726.686 -17.146,819.264 48.088,884.499ZM158.635,821.999C131.682,821.999 110.197,800.514 110.197,773.952C110.197,747.389 131.682,725.514 158.635,725.514C184.807,725.514 206.682,747.389 206.682,773.952C206.682,800.514 184.807,821.999 158.635,821.999ZM525.822,300.124C517.229,302.468 509.807,298.171 506.682,288.796C504.338,281.764 509.416,273.171 517.619,270.827L608.635,246.218C616.447,244.264 624.651,248.952 626.994,257.155C629.729,266.139 624.26,273.952 616.057,276.296L525.822,300.124ZM537.151,346.608C528.557,348.952 521.526,344.655 518.401,335.28C516.057,328.249 521.135,319.655 529.338,317.702L620.354,292.702C627.776,291.139 636.369,295.436 638.713,303.639C641.057,312.624 635.979,320.436 627.776,322.78L537.151,346.608ZM548.869,393.093C540.666,395.436 532.072,391.139 530.119,381.764C528.557,373.952 532.854,366.53 541.057,364.186L632.072,339.968C640.666,337.233 648.479,342.311 650.432,350.124C652.385,357.936 647.307,366.53 639.885,368.483L548.869,393.093ZM795.354,448.952C810.197,439.968 825.822,428.249 842.229,413.014C891.447,368.483 916.447,301.296 906.682,253.639L788.322,286.061C775.041,289.577 763.713,290.358 751.604,288.405L795.354,448.952Z" style="fill-opacity:0.85;fill-rule:nonzero;"/>
            </g>
        </g>
    </g>
</svg>
